<?xml version="1.0" standalone="no"?><!DOCTYPE svg PUBLIC "-//W3C//DTD SVG 1.1//EN" "http://www.w3.org/Graphics/SVG/1.1/DTD/svg11.dtd"><svg t="1713630289669" class="icon" viewBox="0 0 1163 1024" version="1.1" xmlns="http://www.w3.org/2000/svg" p-id="5247" xmlns:xlink="http://www.w3.org/1999/xlink" width="227.1484375" height="200"><path d="M358.165417 44.251663v531.010575c0 24.340291 19.911372 44.256355 44.256355 44.256355h411.762852a44.383029 44.383029 0 0 0-0.225199 4.419536v112.843618c0 24.340291 14.074956 30.172015 31.288628 12.963034l130.226189-130.226188h143.808522c24.340291 0 44.256355-19.911372 44.256354-44.256355V44.251663C1163.529735 19.911372 1143.618363 0 1119.278072 0H402.407697c-24.330908 0-44.24228 19.911372-44.24228 44.251663z m487.561184 263.290828c0-37.8804 30.706863-68.591955 68.587263-68.591955s68.587263 30.706863 68.587263 68.591955-30.706863 68.587263-68.587263 68.587263-68.587263-30.706863-68.587263-68.587263z m-296.573408 0c0-37.8804 30.706863-68.591955 68.582572-68.591955 37.8804 0 68.591955 30.711555 68.591954 68.591955 0 37.8804-30.711555 68.587263-68.591954 68.587263-37.875708 0-68.582571-30.706863-68.582572-68.587263z" fill="#00CCC6" p-id="5248"></path><path d="M769.961111 728.913846v69.891542c0 25.804087-4.475836 56.867516-9.955686 69.042353-5.475158 12.170146-55.408412 22.125832-81.212499 22.125832H355.336351c-25.804087 0-46.860222 0.661523-46.79923 1.468487 0.0563 0.811656 0.103216 24.077559 0.103216 49.881646v19.005883c0 25.804087-3.166865 53.705342-7.037478 62.004874-3.875305 8.304224-39.18937-17.054156-57.430514-35.295299l-63.867461-63.872152c-18.255219-18.250527-54.291799-33.174672-80.095886-33.174673H91.158801c-25.804087 0-56.872207-4.480528-69.042353-9.955685C9.950994 874.552112 0 824.609475 0 798.805388V361.632548c0-25.804087 9.955686-75.737341 22.125832-81.212499 12.170146-5.475158 43.238266-9.960378 69.042353-9.960377h209.740309v364.616439c0 25.804087 21.112435 46.916522 46.916522 46.916522h422.15017v46.921213h-0.014075z" fill="#00CCC6" p-id="5249"></path></svg>